<svg xmlns="http://www.w3.org/2000/svg" viewBox="0 0 160 80" fill="none">
  
  <path d="M80 40 C 80 40, 40 12, 20 20 C 10 28, 10 52, 20 60 C 40 68, 80 40, 80 40 Z" fill="#d4447a"></path>
  <path d="M80 40 C 80 40, 120 12, 140 20 C 150 28, 150 52, 140 60 C 120 68, 80 40, 80 40 Z" fill="#d4447a"></path>
  <ellipse cx="80" cy="40" rx="10" ry="12" fill="#8b1a4a"></ellipse>
  <path d="M76 40 Q 80 46, 84 40" stroke="#fadbe8" stroke-width="1.5" fill="none" opacity="0.8"></path>
  
  <path d="M72 50 Q 62 68, 56 76" stroke="#d4447a" stroke-width="10" stroke-linecap="round" fill="none" opacity="0.9"></path>
  <path d="M88 50 Q 98 68, 104 76" stroke="#d4447a" stroke-width="10" stroke-linecap="round" fill="none" opacity="0.9"></path>
</svg>